<svg width="2257" height="1159" viewBox="0 0 2257 1159" fill="none" xmlns="http://www.w3.org/2000/svg">
<g clip-path="url(#clip0_5489_1212)">
<path d="M1184.79 703.839C1243.37 649.716 1302.86 596.222 1386.98 593.041C1413.03 592.057 1440.06 596.202 1462.13 610.772C1501.32 636.66 1530.75 677.149 1559.44 713.509C1575.35 733.682 1591.65 755.247 1617.64 763.26C1668.73 779.018 1716.48 748.821 1750.9 713.848C1781.58 682.677 1801.5 640.335 1838.5 615.387C1867.49 595.847 1894.1 589.955 1928.38 584.979C1953.71 581.301 1980.7 579.342 2005.98 585.488C2032.06 591.827 2046.28 623.103 2060.94 643.109C2073.85 660.719 2088.05 673.913 2105.25 687.097C2130.48 706.438 2151.79 692.519 2172.01 671.015" stroke="#B643CD" stroke-width="0.863623" stroke-linecap="round"/>
<path d="M1076.66 476.723C1135.23 422.603 1194.73 369.106 1278.85 365.925C1304.9 364.941 1331.93 369.085 1353.99 383.659C1393.19 409.543 1422.62 450.033 1451.3 486.394C1467.22 506.567 1483.51 528.132 1509.5 536.145C1560.59 551.902 1608.35 521.705 1642.77 486.732C1673.44 455.562 1693.37 413.218 1730.37 388.271C1759.35 368.732 1785.96 362.84 1820.24 357.862C1845.57 354.184 1872.56 352.226 1897.85 358.373C1923.92 364.712 1938.15 395.988 1952.81 415.993C1965.71 433.603 1979.92 446.797 1997.12 459.981C2022.35 479.323 2043.65 465.403 2063.88 443.898" stroke="#B643CD" stroke-width="0.863623"/>
<path d="M1082.35 488.678C1140.92 434.555 1200.42 381.059 1284.54 377.88C1310.59 376.896 1337.62 381.041 1359.68 395.611C1398.88 421.498 1428.31 461.986 1457 498.346C1472.91 518.521 1489.21 540.085 1515.19 548.099C1566.28 563.854 1614.04 533.659 1648.46 498.685C1679.13 467.515 1699.06 425.173 1736.06 400.225C1765.04 380.685 1791.66 374.793 1825.93 369.817C1851.27 366.139 1878.25 364.18 1903.54 370.326C1929.61 376.665 1943.84 407.941 1958.5 427.947C1971.4 445.557 1985.61 458.751 2002.81 471.935C2028.04 491.276 2049.35 477.357 2069.57 455.851" stroke="#B643CD" stroke-width="0.863623"/>
<path d="M1088.04 500.63C1146.62 446.51 1206.11 393.013 1290.23 389.832C1316.28 388.848 1343.31 392.993 1365.37 407.566C1404.57 433.451 1434 473.94 1462.69 510.301C1478.6 530.475 1494.9 552.04 1520.89 560.053C1571.98 575.808 1619.73 545.611 1654.15 510.638C1684.82 479.469 1704.75 437.126 1741.75 412.178C1770.73 392.638 1797.35 386.747 1831.63 381.77C1856.96 378.092 1883.94 376.133 1909.23 382.28C1935.31 388.618 1949.53 419.895 1964.19 439.9C1977.09 457.51 1991.3 470.704 2008.5 483.889C2033.73 503.229 2055.04 489.31 2075.26 467.806" stroke="#B643CD" stroke-width="0.863623"/>
<path d="M1093.73 512.585C1152.31 458.462 1211.8 404.966 1295.92 401.787C1321.97 400.803 1349 404.948 1371.06 419.518C1410.26 445.405 1439.69 485.893 1468.38 522.254C1484.29 542.427 1500.59 563.992 1526.58 572.005C1577.67 587.762 1625.42 557.567 1659.84 522.592C1690.51 491.422 1710.44 449.08 1747.44 424.133C1776.42 404.591 1803.04 398.701 1837.32 393.723C1862.65 390.045 1889.64 388.087 1914.92 394.234C1941 400.572 1955.22 431.849 1969.88 451.854C1982.79 469.464 1996.99 482.658 2014.19 495.843C2039.42 515.184 2060.73 501.263 2080.95 479.759" stroke="#B643CD" stroke-width="0.863623"/>
<path d="M1099.42 524.537C1158 470.417 1217.49 416.92 1301.61 413.739C1327.66 412.754 1354.69 416.899 1376.76 431.472C1415.95 457.36 1445.38 497.847 1474.07 534.207C1489.98 554.381 1506.28 575.945 1532.27 583.961C1583.36 599.715 1631.11 569.521 1665.53 534.546C1696.21 503.376 1716.13 461.034 1753.13 436.085C1782.12 416.545 1808.73 410.654 1843.01 405.678C1868.34 401.999 1895.33 400.04 1920.61 406.186C1946.69 412.526 1960.92 443.802 1975.58 463.808C1988.48 481.417 2002.68 494.611 2019.88 507.795C2045.11 527.137 2066.42 513.217 2086.64 491.712" stroke="#B643CD" stroke-width="0.863623"/>
<path d="M1105.11 536.492C1163.69 482.369 1223.18 428.872 1307.31 425.694C1333.35 424.71 1360.38 428.854 1382.45 443.425C1421.64 469.312 1451.07 509.799 1479.76 546.162C1495.68 566.334 1511.97 587.899 1537.96 595.913C1589.05 611.668 1636.81 581.473 1671.23 546.498C1701.9 515.329 1721.82 472.987 1758.83 448.038C1787.81 428.499 1814.42 422.607 1848.7 417.631C1874.03 413.952 1901.02 411.994 1926.3 418.14C1952.38 424.479 1966.61 455.755 1981.27 475.761C1994.17 493.37 2008.37 506.565 2025.57 519.748C2050.8 539.09 2072.11 525.171 2092.33 503.666" stroke="#B643CD" stroke-width="0.863623"/>
<path d="M1110.81 548.444C1169.38 494.321 1228.87 440.827 1313 437.646C1339.04 436.661 1366.07 440.806 1388.14 455.379C1427.33 481.264 1456.77 521.755 1485.45 558.115C1501.37 578.286 1517.66 599.85 1543.65 607.867C1594.74 623.623 1642.5 593.426 1676.92 558.452C1707.59 527.282 1727.51 484.939 1764.52 459.993C1793.5 440.451 1820.11 434.561 1854.39 429.584C1879.72 425.905 1906.71 423.946 1932 430.094C1958.07 436.431 1972.3 467.709 1986.96 487.714C1999.86 505.323 2014.06 518.517 2031.27 531.703C2056.5 551.043 2077.8 537.123 2098.03 515.619" stroke="#B643CD" stroke-width="0.863623"/>
<path d="M1116.5 560.398C1175.07 506.275 1234.57 452.779 1318.69 449.6C1344.73 448.616 1371.77 452.761 1393.83 467.332C1433.02 493.218 1462.46 533.706 1491.14 570.069C1507.06 590.24 1523.35 611.805 1549.34 619.818C1600.43 635.575 1648.19 605.38 1682.61 570.404C1713.28 539.235 1733.21 496.893 1770.21 471.946C1799.19 452.406 1825.8 446.515 1860.08 441.537C1885.41 437.858 1912.4 435.901 1937.69 442.047C1963.76 448.386 1977.99 479.662 1992.65 499.667C2005.55 517.278 2019.76 530.472 2036.96 543.656C2062.19 562.997 2083.49 549.078 2103.72 527.572" stroke="#B643CD" stroke-width="0.863623"/>
<path d="M1122.19 572.351C1180.76 518.23 1240.26 464.734 1324.38 461.552C1350.42 460.568 1377.46 464.713 1399.52 479.286C1438.72 505.171 1468.15 545.661 1496.83 582.021C1512.75 602.196 1529.05 623.758 1555.03 631.774C1606.12 647.529 1653.88 617.332 1688.3 582.36C1718.97 551.189 1738.9 508.847 1775.9 483.899C1804.88 464.359 1831.49 458.467 1865.77 453.491C1891.11 449.813 1918.09 447.853 1943.38 454C1969.45 460.339 1983.68 491.615 1998.34 511.621C2011.24 529.23 2025.45 542.424 2042.65 555.609C2067.88 574.95 2089.18 561.031 2109.4 539.525" stroke="#B643CD" stroke-width="0.863623"/>
<path d="M1127.88 584.305C1186.46 530.182 1245.95 476.688 1330.07 473.507C1356.12 472.523 1383.15 476.668 1405.21 491.238C1444.41 517.126 1473.84 557.612 1502.52 593.975C1518.44 614.147 1534.74 635.712 1560.73 643.726C1611.82 659.481 1659.57 629.286 1693.99 594.311C1724.66 563.143 1744.59 520.8 1781.59 495.852C1810.57 476.312 1837.19 470.421 1871.47 465.444C1896.8 461.766 1923.78 459.807 1949.07 465.953C1975.15 472.292 1989.37 503.568 2004.03 523.575C2016.93 541.184 2031.14 554.378 2048.34 567.563C2073.57 586.903 2094.88 572.984 2115.1 551.48" stroke="#B643CD" stroke-width="0.863623"/>
<path d="M1133.57 596.257C1192.14 542.137 1251.64 488.64 1335.76 485.459C1361.81 484.475 1388.84 488.62 1410.9 503.194C1450.1 529.077 1479.53 569.568 1508.22 605.928C1524.13 626.101 1540.43 647.666 1566.41 655.68C1617.51 671.436 1665.26 641.239 1699.68 606.265C1730.35 575.095 1750.28 532.753 1787.28 507.806C1816.26 488.265 1842.88 482.375 1877.15 477.397C1902.49 473.718 1929.47 471.76 1954.76 477.907C1980.83 484.245 1995.06 515.523 2009.72 535.527C2022.63 553.138 2036.83 566.332 2054.03 579.516C2079.26 598.857 2100.56 584.937 2120.79 563.432" stroke="#B643CD" stroke-width="0.863623"/>
<path d="M1139.26 608.212C1197.84 554.089 1257.33 500.595 1341.45 497.414C1367.5 496.43 1394.53 500.574 1416.59 515.145C1455.79 541.033 1485.22 581.52 1513.91 617.883C1529.82 638.053 1546.12 659.618 1572.11 667.633C1623.2 683.388 1670.95 653.194 1705.37 618.219C1736.05 587.05 1755.97 544.708 1792.97 519.76C1821.95 500.22 1848.57 494.328 1882.85 489.352C1908.18 485.673 1935.17 483.714 1960.45 489.861C1986.53 496.2 2000.75 527.476 2015.41 547.482C2028.32 565.091 2042.52 578.285 2059.72 591.469C2084.95 610.811 2106.26 596.892 2126.48 575.386" stroke="#B643CD" stroke-width="0.863623"/>
<path d="M1144.95 620.164C1203.53 566.044 1263.02 512.547 1347.14 509.366C1373.19 508.382 1400.22 512.527 1422.28 527.1C1461.48 552.985 1490.91 593.474 1519.6 629.834C1535.51 650.009 1551.81 671.574 1577.8 679.588C1628.89 695.342 1676.64 665.145 1711.06 630.173C1741.74 599.002 1761.66 556.661 1798.66 531.712C1827.65 512.172 1854.26 506.281 1888.54 501.305C1913.87 497.626 1940.86 495.667 1966.14 501.813C1992.22 508.153 2006.44 539.429 2021.1 559.435C2034.01 577.044 2048.21 590.238 2065.41 603.422C2090.64 622.764 2111.95 608.844 2132.17 587.34" stroke="#B643CD" stroke-width="0.863623"/>
<path d="M1150.64 632.119C1209.22 577.996 1268.71 524.502 1352.84 521.321C1378.88 520.336 1405.91 524.482 1427.98 539.051C1467.17 564.939 1496.61 605.427 1525.29 641.79C1541.21 661.961 1557.5 683.526 1583.49 691.539C1634.58 707.294 1682.34 677.101 1716.75 642.127C1747.43 610.956 1767.35 568.614 1804.36 543.667C1833.34 524.126 1859.95 518.236 1894.23 513.258C1919.56 509.58 1946.55 507.62 1971.83 513.768C1997.91 520.106 2012.14 551.384 2026.8 571.388C2039.7 588.997 2053.9 602.191 2071.1 615.377C2096.33 634.717 2117.64 620.798 2137.86 599.293" stroke="#B643CD" stroke-width="0.863623"/>
<path d="M1156.34 644.071C1214.91 589.951 1274.4 536.454 1358.53 533.273C1384.57 532.288 1411.6 536.433 1433.67 551.007C1472.86 576.893 1502.3 617.382 1530.98 653.742C1546.89 673.915 1563.19 695.48 1589.18 703.494C1640.27 719.25 1688.03 689.055 1722.44 654.079C1753.12 622.908 1773.04 580.567 1810.05 555.62C1839.03 536.08 1865.64 530.189 1899.92 525.211C1925.25 521.532 1952.24 519.575 1977.52 525.721C2003.6 532.06 2017.83 563.336 2032.49 583.341C2045.39 600.951 2059.6 614.146 2076.79 627.33C2102.03 646.671 2123.33 632.752 2143.55 611.246" stroke="#B643CD" stroke-width="0.863623"/>
<path d="M1162.03 656.026C1220.6 601.903 1280.1 548.409 1364.22 545.228C1390.26 544.244 1417.29 548.388 1439.36 562.959C1478.56 588.846 1507.99 629.333 1536.67 665.696C1552.59 685.868 1568.89 707.433 1594.87 715.447C1645.96 731.202 1693.72 701.007 1728.14 666.035C1758.81 634.864 1778.74 592.521 1815.74 567.573C1844.72 548.033 1871.33 542.142 1905.61 537.165C1930.95 533.487 1957.93 531.528 1983.22 537.674C2009.29 544.014 2023.52 575.29 2038.18 595.296C2051.08 612.905 2065.29 626.099 2082.49 639.283C2107.72 658.624 2129.02 644.705 2149.24 623.199" stroke="#B643CD" stroke-width="0.863623"/>
<path d="M1167.72 667.978C1226.29 613.857 1285.79 560.361 1369.91 557.179C1395.96 556.196 1422.99 560.341 1445.05 574.913C1484.25 600.801 1513.68 641.288 1542.36 677.648C1558.28 697.823 1574.58 719.387 1600.56 727.401C1651.65 743.156 1699.41 712.962 1733.83 677.986C1764.5 646.816 1784.43 604.476 1821.43 579.526C1850.41 559.986 1877.02 554.095 1911.3 549.118C1936.64 545.44 1963.62 543.481 1988.91 549.627C2014.98 555.966 2029.21 587.242 2043.87 607.249C2056.77 624.858 2070.98 638.052 2088.18 651.237C2113.41 670.577 2134.71 656.658 2154.94 635.154" stroke="#B643CD" stroke-width="0.863623"/>
<path d="M1173.41 679.933C1231.99 625.81 1291.48 572.316 1375.6 569.134C1401.65 568.15 1428.68 572.295 1450.74 586.866C1489.94 612.753 1519.37 653.241 1548.06 689.603C1563.97 709.774 1580.27 731.339 1606.25 739.353C1657.35 755.109 1705.1 724.915 1739.52 689.941C1770.19 658.77 1790.12 616.427 1827.12 591.481C1856.1 571.939 1882.72 566.05 1916.99 561.072C1942.33 557.393 1969.31 555.434 1994.6 561.582C2020.67 567.92 2034.9 599.197 2049.56 619.202C2062.47 636.813 2076.67 650.007 2093.87 663.191C2119.1 682.532 2140.4 668.611 2160.63 647.107" stroke="#B643CD" stroke-width="0.863623"/>
<path d="M1179.1 691.887C1237.68 637.764 1297.17 584.267 1381.29 581.089C1407.34 580.105 1434.37 584.246 1456.43 598.82C1495.63 624.708 1525.06 665.195 1553.75 701.555C1569.66 721.728 1585.96 743.293 1611.95 751.308C1663.04 767.063 1710.79 736.868 1745.21 701.893C1775.89 670.725 1795.81 628.382 1832.81 603.433C1861.79 583.893 1888.41 578.002 1922.68 573.024C1948.02 569.347 1975.01 567.388 2000.29 573.534C2026.37 579.874 2040.59 611.15 2055.25 631.154C2068.16 648.765 2082.36 661.959 2099.56 675.143C2124.79 694.485 2146.1 680.565 2166.32 659.06" stroke="#B643CD" stroke-width="0.863623"/>
</g>
<g clip-path="url(#clip1_5489_1212)">
<path d="M199.003 735.109C257.579 680.987 317.072 627.492 401.194 624.311C427.241 623.327 454.273 627.473 476.336 642.042C515.533 667.93 544.963 708.419 573.649 744.779C589.565 764.952 605.862 786.517 631.85 794.53C682.938 810.288 730.695 780.091 765.113 745.118C795.788 713.947 815.713 671.605 852.714 646.657C881.696 627.117 908.31 621.226 942.589 616.249C967.921 612.571 994.907 610.612 1020.19 616.758C1046.27 623.097 1060.5 654.373 1075.16 674.379C1088.06 691.989 1102.26 705.183 1119.46 718.367C1144.69 737.708 1166 723.789 1186.22 702.285" stroke="#B643CD" stroke-width="0.863623" stroke-linecap="round"/>
<path d="M90.8703 507.993C149.445 453.873 208.939 400.376 293.062 397.195C319.108 396.211 346.139 400.356 368.203 414.929C407.4 440.813 436.831 481.303 465.517 517.664C481.43 537.837 497.726 559.402 523.714 567.415C574.806 583.172 622.563 552.975 656.982 518.002C687.655 486.832 707.579 444.488 744.582 419.541C773.564 400.002 800.178 394.11 834.454 389.132C859.787 385.454 886.775 383.496 912.06 389.643C938.137 395.982 952.363 427.258 967.021 447.263C979.926 464.873 994.131 478.067 1011.33 491.251C1036.56 510.593 1057.87 496.673 1078.09 475.168" stroke="#B643CD" stroke-width="0.863623"/>
<path d="M96.5609 519.948C155.137 465.825 214.631 412.329 298.752 409.15C324.799 408.166 351.83 412.311 373.895 426.881C413.09 452.768 442.522 493.256 471.208 529.616C487.123 549.791 503.42 571.355 529.408 579.369C580.498 595.124 628.253 564.929 662.672 529.955C693.346 498.785 713.272 456.443 750.273 431.495C779.255 411.955 805.868 406.063 840.147 401.087C865.48 397.409 892.466 395.45 917.75 401.596C943.828 407.935 958.054 439.211 972.714 459.217C985.616 476.827 999.821 490.021 1017.02 503.205C1042.25 522.546 1063.56 508.627 1083.78 487.121" stroke="#B643CD" stroke-width="0.863623"/>
<path d="M102.251 531.9C160.826 477.78 220.321 424.283 304.443 421.102C330.489 420.118 357.52 424.263 379.584 438.836C418.781 464.721 448.211 505.21 476.899 541.571C492.812 561.745 509.108 583.31 535.096 591.323C586.186 607.078 633.943 576.881 668.361 541.908C699.035 510.739 718.961 468.396 755.962 443.448C784.944 423.908 811.557 418.017 845.836 413.04C871.169 409.362 898.155 407.403 923.442 413.55C949.517 419.888 963.743 451.165 978.403 471.17C991.305 488.78 1005.51 501.974 1022.71 515.159C1047.94 534.499 1069.25 520.58 1089.47 499.076" stroke="#B643CD" stroke-width="0.863623"/>
<path d="M107.944 543.855C166.52 489.732 226.015 436.236 310.136 433.057C336.182 432.073 363.213 436.218 385.278 450.789C424.472 476.675 453.906 517.163 482.592 553.524C498.505 573.697 514.801 595.262 540.789 603.275C591.882 619.032 639.637 588.837 674.054 553.862C704.728 522.692 724.653 480.35 761.657 455.403C790.637 435.861 817.252 429.971 851.529 424.994C876.861 421.315 903.85 419.357 929.134 425.504C955.209 431.842 969.438 463.119 984.095 483.124C997 500.734 1011.21 513.928 1028.4 527.113C1053.64 546.454 1074.94 532.533 1095.16 511.029" stroke="#B643CD" stroke-width="0.863623"/>
<path d="M113.634 555.807C172.209 501.687 231.703 448.19 315.826 445.009C341.872 444.025 368.903 448.169 390.966 462.742C430.163 488.63 459.594 529.117 488.28 565.477C504.193 585.651 520.489 607.215 546.48 615.231C597.57 630.986 645.325 600.791 679.745 565.816C710.419 534.646 730.344 492.304 767.346 467.355C796.328 447.815 822.941 441.924 857.22 436.948C882.553 433.269 909.539 431.31 934.823 437.456C960.9 443.796 975.127 475.072 989.786 495.078C1002.69 512.687 1016.89 525.881 1034.09 539.065C1059.33 558.407 1080.63 544.487 1100.85 522.982" stroke="#B643CD" stroke-width="0.863623"/>
<path d="M119.327 567.762C177.903 513.639 237.397 460.142 321.518 456.964C347.565 455.98 374.595 460.124 396.66 474.695C435.856 500.583 465.288 541.069 493.972 577.432C509.889 597.604 526.185 619.169 552.173 627.183C603.263 642.938 651.018 612.743 685.438 577.768C716.111 546.599 736.037 504.257 773.038 479.308C802.02 459.769 828.634 453.877 862.913 448.901C888.245 445.222 915.231 443.264 940.516 449.41C966.593 455.749 980.819 487.025 995.479 507.031C1008.38 524.64 1022.59 537.835 1039.79 551.018C1065.02 570.36 1086.32 556.441 1106.55 534.936" stroke="#B643CD" stroke-width="0.863623"/>
<path d="M125.019 579.714C183.595 525.591 243.088 472.097 327.21 468.916C353.257 467.931 380.288 472.076 402.351 486.649C441.548 512.534 470.98 553.025 499.666 589.385C515.58 609.556 531.876 631.121 557.863 639.137C608.955 654.893 656.712 624.696 691.128 589.722C721.802 558.552 741.728 516.209 778.731 491.263C807.711 471.721 834.327 465.831 868.603 460.854C893.936 457.175 920.922 455.216 946.209 461.364C972.284 467.701 986.512 498.979 1001.17 518.984C1014.07 536.593 1028.28 549.787 1045.48 562.973C1070.71 582.313 1092.01 568.393 1112.24 546.889" stroke="#B643CD" stroke-width="0.863623"/>
<path d="M130.708 591.669C189.284 537.546 248.778 484.049 332.899 480.87C358.945 479.886 385.976 484.031 408.042 498.602C447.236 524.488 476.67 564.976 505.354 601.339C521.268 621.51 537.565 643.075 563.553 651.088C614.645 666.845 662.4 636.65 696.818 601.674C727.491 570.505 747.416 528.163 784.42 503.216C813.402 483.676 840.016 477.785 874.292 472.807C899.625 469.128 926.613 467.171 951.898 473.317C977.975 479.656 992.201 510.932 1006.86 530.937C1019.76 548.548 1033.97 561.742 1051.17 574.926C1076.4 594.267 1097.71 580.348 1117.93 558.842" stroke="#B643CD" stroke-width="0.863623"/>
<path d="M136.4 603.621C194.975 549.5 254.469 496.004 338.591 492.822C364.638 491.838 391.668 495.983 413.732 510.556C452.93 536.441 482.36 576.931 511.046 613.291C526.961 633.466 543.259 655.028 569.245 663.044C620.335 678.799 668.092 648.602 702.51 613.63C733.184 582.459 753.11 540.117 790.111 515.169C819.093 495.629 845.707 489.737 879.986 484.761C905.318 481.083 932.304 479.123 957.589 485.27C983.666 491.609 997.892 522.885 1012.55 542.891C1025.45 560.5 1039.66 573.694 1056.86 586.879C1082.09 606.22 1103.4 592.301 1123.62 570.795" stroke="#B643CD" stroke-width="0.863623"/>
<path d="M142.09 615.575C200.667 561.452 260.16 507.958 344.282 504.777C370.328 503.793 397.359 507.938 419.423 522.508C458.62 548.396 488.051 588.882 516.736 625.245C532.652 645.417 548.949 666.982 574.937 674.996C626.027 690.751 673.782 660.556 708.202 625.581C738.875 594.413 758.8 552.07 795.802 527.122C824.784 507.582 851.397 501.691 885.676 496.714C911.009 493.036 937.995 491.077 963.279 497.223C989.356 503.562 1003.58 534.838 1018.24 554.845C1031.15 572.454 1045.35 585.648 1062.55 598.833C1087.78 618.173 1109.09 604.254 1129.31 582.75" stroke="#B643CD" stroke-width="0.863623"/>
<path d="M147.782 627.527C206.357 573.407 265.851 519.91 349.974 516.729C376.02 515.745 403.051 519.89 425.116 534.464C464.311 560.347 493.743 600.838 522.429 637.198C538.342 657.372 554.638 678.936 580.627 686.95C631.719 702.706 679.475 672.509 713.891 637.535C744.566 606.365 764.491 564.023 801.495 539.076C830.474 519.535 857.09 513.645 891.367 508.667C916.699 504.988 943.685 503.03 968.972 509.177C995.047 515.515 1009.28 546.793 1023.93 566.797C1036.84 584.408 1051.04 597.602 1068.24 610.786C1093.47 630.127 1114.78 616.207 1135 594.702" stroke="#B643CD" stroke-width="0.863623"/>
<path d="M153.473 639.482C212.05 585.359 271.542 531.865 355.665 528.684C381.711 527.7 408.742 531.844 430.807 546.415C470.004 572.303 499.435 612.79 528.12 649.153C544.034 669.323 560.33 690.888 586.321 698.903C637.411 714.658 685.166 684.464 719.586 649.489C750.259 618.321 770.184 575.978 807.185 551.03C836.168 531.49 862.781 525.598 897.06 520.622C922.393 516.943 949.378 514.984 974.663 521.131C1000.74 527.47 1014.97 558.746 1029.63 578.752C1042.53 596.361 1056.73 609.555 1073.93 622.739C1099.16 642.081 1120.47 628.162 1140.69 606.656" stroke="#B643CD" stroke-width="0.863623"/>
<path d="M159.165 651.434C217.74 597.314 277.234 543.817 361.357 540.636C387.404 539.652 414.435 543.797 436.497 558.37C475.695 584.255 505.125 624.744 533.811 661.104C549.726 681.279 566.022 702.844 592.011 710.858C643.1 726.612 690.857 696.415 725.275 661.443C755.95 630.272 775.875 587.931 812.876 562.982C841.858 543.442 868.472 537.551 902.751 532.575C928.083 528.896 955.069 526.937 980.354 533.083C1006.43 539.423 1020.66 570.699 1035.32 590.705C1048.22 608.314 1062.42 621.508 1079.62 634.692C1104.86 654.034 1126.16 640.114 1146.39 618.61" stroke="#B643CD" stroke-width="0.863623"/>
<path d="M164.856 663.389C223.433 609.266 282.925 555.772 367.048 552.591C393.094 551.606 420.126 555.752 442.189 570.321C481.385 596.209 510.819 636.697 539.504 673.06C555.418 693.231 571.714 714.796 597.702 722.809C648.792 738.564 696.55 708.371 730.966 673.397C761.64 642.227 781.566 599.884 818.57 574.937C847.549 555.396 874.165 549.506 908.442 544.528C933.774 540.85 960.76 538.89 986.047 545.038C1012.12 551.376 1026.35 582.654 1041.01 602.658C1053.91 620.267 1068.12 633.461 1085.32 646.647C1110.55 665.987 1131.85 652.068 1152.08 630.564" stroke="#B643CD" stroke-width="0.863623"/>
<path d="M170.546 675.341C229.121 621.221 288.616 567.724 372.739 564.543C398.783 563.558 425.815 567.703 447.879 582.277C487.073 608.163 516.507 648.652 545.193 685.012C561.106 705.185 577.402 726.75 603.39 734.764C654.482 750.52 702.238 720.325 736.655 685.349C767.329 654.178 787.255 611.837 824.258 586.89C853.24 567.35 879.854 561.459 914.13 556.481C939.463 552.802 966.451 550.845 991.736 556.991C1017.81 563.33 1032.04 594.606 1046.7 614.611C1059.6 632.222 1073.81 645.416 1091.01 658.6C1116.24 677.941 1137.54 664.022 1157.76 642.516" stroke="#B643CD" stroke-width="0.863623"/>
<path d="M176.237 687.296C234.813 633.173 294.306 579.679 378.429 576.498C404.476 575.514 431.505 579.658 453.571 594.229C492.767 620.116 522.199 660.603 550.883 696.966C566.8 717.138 583.096 738.703 609.084 746.717C660.174 762.472 707.929 732.277 742.348 697.305C773.022 666.134 792.948 623.791 829.949 598.843C858.931 579.303 885.544 573.412 919.824 568.435C945.156 564.757 972.142 562.798 997.426 568.944C1023.5 575.284 1037.73 606.56 1052.39 626.566C1065.29 644.175 1079.5 657.369 1096.7 670.553C1121.93 689.894 1143.23 675.975 1163.46 654.469" stroke="#B643CD" stroke-width="0.863623"/>
<path d="M181.929 699.248C240.504 645.128 299.998 591.631 384.12 588.449C410.167 587.466 437.199 591.611 459.261 606.183C498.457 632.071 527.888 672.558 556.574 708.918C572.49 729.093 588.786 750.657 614.774 758.671C665.864 774.426 713.619 744.232 748.039 709.256C778.713 678.086 798.638 635.746 835.639 610.796C864.622 591.256 891.235 585.365 925.514 580.388C950.847 576.71 977.832 574.751 1003.12 580.897C1029.19 587.236 1043.42 618.512 1058.08 638.519C1070.98 656.128 1085.19 669.322 1102.39 682.507C1127.62 701.847 1148.93 687.928 1169.15 666.424" stroke="#B643CD" stroke-width="0.863623"/>
<path d="M187.62 711.203C246.196 657.08 305.689 603.586 389.81 600.404C415.857 599.42 442.889 603.565 464.955 618.136C504.149 644.023 533.582 684.511 562.267 720.873C578.181 741.044 594.477 762.609 620.466 770.623C671.558 786.379 719.313 756.185 753.729 721.211C784.404 690.04 804.329 647.697 841.333 622.751C870.312 603.209 896.928 597.32 931.205 592.342C956.537 588.663 983.523 586.704 1008.81 592.852C1034.88 599.19 1049.11 630.467 1063.77 650.472C1076.68 668.083 1090.88 681.277 1108.08 694.461C1133.31 713.802 1154.62 699.881 1174.84 678.377" stroke="#B643CD" stroke-width="0.863623"/>
<path d="M193.313 723.157C251.889 669.034 311.383 615.537 395.505 612.359C421.552 611.375 448.582 615.516 470.647 630.09C509.843 655.978 539.275 696.465 567.96 732.825C583.873 752.998 600.17 774.563 626.16 782.578C677.25 798.333 725.005 768.138 759.425 733.163C790.098 701.995 810.024 659.652 847.025 634.703C876.007 615.163 902.621 609.272 936.897 604.294C962.232 600.617 989.218 598.658 1014.5 604.804C1040.58 611.144 1054.81 642.42 1069.46 662.424C1082.37 680.035 1096.57 693.229 1113.77 706.413C1139 725.755 1160.31 711.836 1180.53 690.33" stroke="#B643CD" stroke-width="0.863623"/>
</g>
<defs>
<clipPath id="clip0_5489_1212">
<rect width="1074.35" height="680.823" fill="white" transform="translate(1326.2) rotate(30)"/>
</clipPath>
<clipPath id="clip1_5489_1212">
<rect width="1074.35" height="680.823" fill="white" transform="translate(340.412 31.2705) rotate(30)"/>
</clipPath>
</defs>
</svg>
